<svg xmlns="http://www.w3.org/2000/svg" viewBox="0 0 32 28"><defs><linearGradient x1=".004%" y1="49.993%" x2="100.131%" y2="49.993%" id="a"><stop stop-color="#6500FF" offset="0%"/><stop stop-color="#6A09FF" offset="16%"/><stop stop-color="#7623FF" offset="43%"/><stop stop-color="#8A4CFF" offset="77%"/><stop stop-color="#996BFF" offset="99%"/></linearGradient><linearGradient x1="50.004%" y1="100.012%" x2="50.004%" y2="0%" id="b"><stop stop-color="#6500FF" offset="0%"/><stop stop-color="#6909FF" offset="16%"/><stop stop-color="#7523FF" offset="43%"/><stop stop-color="#894CFF" offset="77%"/><stop stop-color="#976BFF" offset="99%"/></linearGradient><linearGradient x1="49.854%" y1="100.255%" x2="49.854%" y2="0%" id="c"><stop stop-color="#FF6E06" offset="0%"/><stop stop-color="#FF770C" offset="28%"/><stop stop-color="#FF911C" offset="75%"/><stop stop-color="#FFA126" offset="100%"/></linearGradient><linearGradient x1="57351%" y1="59860%" x2="57351%" y2="35023%" id="d"><stop stop-color="#FF6E06" offset="0%"/><stop stop-color="#FF770C" offset="28%"/><stop stop-color="#FF911C" offset="75%"/><stop stop-color="#FFA126" offset="100%"/></linearGradient></defs><g fill="none"><path d="M1.955.004c-.029 0-.057 0-.088.002a1.41 1.41 0 0 0-.197.017A2.312 2.312 0 0 0 1.4.08a3.479 3.479 0 0 0-.179.061 3.768 3.768 0 0 0-.075.032l-.029.013-.057.028-.031.016L.98.257.95.275.91.298.883.317.825.355.79.381.76.403.728.43.7.453A.503.503 0 0 0 .645.5L.621.521.588.553l-.02.02A1.898 1.898 0 0 0 .46.691L.446.709.414.75a2.707 2.707 0 0 0-.066.09L.337.857.308.9l-.01.017L.29.931l3.784 2.214.801.855a.406.406 0 0 1-.019-.42.446.446 0 0 1 .37-.227H18.12c.045.003.09.005.137.005.961-.014 1.734-.758 1.737-1.674.002-.916-.765-1.664-1.726-1.683L1.955.004Z" fill="url(#a)"/><path d="m22.737 11.315-6.392 11.01a.438.438 0 0 1-.74.025l-4.063-6.995a1.724 1.724 0 0 0-.117-.23L4.667 3.459a2.32 2.32 0 0 1-.005-2.248A2.345 2.345 0 0 1 6.57.005L1.981.001A1.899 1.899 0 0 0 .908.294l-.1.068a2.405 2.405 0 0 0-.15.12A1.7 1.7 0 0 0 .462.69a1.797 1.797 0 0 0-.17.243 1.767 1.767 0 0 0-.028 1.9l.166.289 13.874 23.895a1.882 1.882 0 0 0 .793.776l.108.05a2.537 2.537 0 0 0 .18.069 2.14 2.14 0 0 0 .28.066 2.148 2.148 0 0 0 .19.02l.106.002c.04 0 .063 0 .086-.002a1.206 1.206 0 0 0 .19-.016 2.065 2.065 0 0 0 .27-.06 1.927 1.927 0 0 0 .168-.06l.089-.038.07-.036c.058-.03.073-.04.088-.048a2.596 2.596 0 0 0 .207-.142 1.851 1.851 0 0 0 .464-.537l.376-.64.081-.14 7.68-13.225a1.716 1.716 0 0 0 .047-1.75 1.74 1.74 0 0 0-3.039.01Z" fill="url(#b)"/><path d="M30.137 0h-6.459c-.935.018-1.684.847-1.684 1.863s.75 1.845 1.684 1.864c.046 0 .09-.003.134-.006h2.925c.214.032.374.23.374.465a.501.501 0 0 1-.025.157l-1.542 2.9c-.454.904-.147 2.036.685 2.53.832.492 1.874.159 2.328-.745l3.19-6a1.89 1.89 0 0 0 .08-.17l.003-.007c.015-.036.03-.072.043-.11l.002-.005.017-.052.008-.027a.875.875 0 0 0 .021-.073l.012-.042.01-.04a2.826 2.826 0 0 0 .033-.191 2.31 2.31 0 0 0 .01-.077v-.011l.005-.09v-.022l.003-.091c0-1.115-.83-2.019-1.857-2.02Z" fill="url(#c)"/><path d="M19.881 7.41a.84.84 0 0 0-.725-.41h-6.325a.84.84 0 0 0-.725.41.804.804 0 0 0 0 .82l3.163 5.36a.84.84 0 0 0 .725.41.84.84 0 0 0 .725-.41l3.162-5.36a.804.804 0 0 0 0-.82Z" fill="url(#d)"/></g></svg>