<svg xmlns="http://www.w3.org/2000/svg" viewBox="0 0 497 133"><g fill="none"><path fill="#CBD7DE" d="M227.347 132.284H0V0h227.347v132.284"/><path d="M41.28 90.067c-2.93-2.045-6.611-4.828-9.34-7.472a40.107 40.107 0 0 1-9.344-12.648c1.737 4.99 4.52 9.815 8.627 13.732 3.172 2.593 6.57 4.693 10.058 6.388Zm37.802-61.912c-3.07-4.655-8.952-7.401-14.603-9.195-16.785-6.617-40.71 6.002-44.257 27.758-.228 1.013-.603 3.332-.512 5.066C21.229 38.478 29.295 26.8 40.253 21.83c10.802-5.191 23.557-4.274 32.298 1.873.451.353.901.733 1.329 1.108a31.469 31.469 0 0 0-4.808-1.99c-5.912-2.849-12.945-3.978-19.938-2.478C35.372 22.5 22.895 35.031 20.742 50.662a30.724 30.724 0 0 0-.364 3.077c-.414-.3-.668-1.035-.668-1.955-.23 1.067-.23 2.132-.18 3.211-.149 5 .978 10.152 3.066 14.952A37.223 37.223 0 0 1 21 62.464c.994 4.871 3.044 9.554 6.164 13.32 2.05 2.11 4.347 6.742 7.124 8.228 10.562 8.378 26.586 11.222 37.403 5.059 1.48-.399 2.956-.827 4.29-1.599-1.729.574-3.669.956-5.22 1.5l-.517.006c-.447.254-.67.376-.898.5-7.985 1.008-24.338 2.778-34.416-5.716-2.862-2.054-5.077-4.755-7.153-7.526 1.061.726 2.77 1.707 3.8 2.792 5.078 5.071 12.052 9.656 18.843 10.204-3.131-1.278-5.822-2.8-8.784-4.593-1.533-.707-3.99-1.113-5.104-2.412-6.347-5.416-11.769-10.965-12.744-19.297-.149-.818.38-1.463.115-2.208 1.6 9.225 7.38 16.049 14.642 21.49.985 1.156 2.097 1.634 3.091 2.427 1.27.456 2.396.895 3.33 1.387 10.78 4.029 12.704-.391 22.372-.531-4.36 1.105-11.814 3.144-15.586 3.39 6.782 1.397 19.583-2.055 25.43-6.407 7.268-4.96 5.81-5.183 9.562-11.527.328-.519.648-1.7.918-3.13a31.731 31.731 0 0 0 3.587-14.666c0-10.15-4.766-19.175-12.168-25ZM25.895 59.97c-.638-4.115-.827-8.32.06-12.498-.084.824-.153 1.487-.113 1.803-.401 5.039-.014 9.155.448 11.83a36.83 36.83 0 0 0-.395-1.135c.178.793.39 1.582.634 2.348.402 1.886.773 2.638.667 1.941 3.223 8.447 10.023 14.968 17.564 18.047-7.368-.916-17.128-10.971-18.865-22.336Zm21.486-36.283c-6.161 1.285-12.19 4.69-16.615 10.721 2.966-3.758 6.504-5.778 9.957-6.992a34.825 34.825 0 0 0-.914.69c-2.694 1.597-5.224 3.517-7.487 5.922-.611.783-.89 1.736-1.46 2.428l-1.208 1.822c-1.601 1.513-2.558 3.325-3.6 5.245-4.52 9.973-3.976 22.392 2.228 32.833-11.218-15.533-6.793-37.728 6.483-47.556 5.525-4.358 11.927-6.486 18.214-6.833a31.762 31.762 0 0 0-5.598 1.72Zm20.38 61.457c-1.045.186.569-.266 5.267-3.041.407-.235.85-.519 1.311-.821a31.514 31.514 0 0 0 5.166-3.432c-4.625 4.476-10.308 7.317-11.745 7.294" fill="#EE8421"/><path d="M119.228 60.397c0 10.346 6.635 12.814 16.93 12.814h17.227v15.408h-19.929c-20.364 0-32.019-7.141-32.019-34.087 0-23.322 3.81-35.582 30.303-35.582 21.021 0 26.13 8.588 26.13 27.189v14.393l-38.642-.136Zm21.959-14.182c0-6.82.032-13.492-10.43-13.492-10.332 0-11.652 6.395-11.652 13.492h22.082M287.063 18.95h-59.716v69.669h14.929V33.876h10.53v.007c3.582 0 6.503 2.724 6.887 6.212v48.524h14.93V33.876h10.45v.007a6.971 6.971 0 0 1 6.963 6.963v47.773h14.928V38.854c0-10.986-8.907-19.904-19.901-19.904M189.53 33.883v-.007h27.87V18.95h-30.466l-.009.036c-9.815.297-17.82 7.688-19.093 17.225h-.2v32.345h.2l-.2.16c0 10.772 8.585 19.54 19.293 19.867l.01.036H217.4V73.684h-27.87a6.974 6.974 0 0 1-6.968-6.968v-25.87c0-3.839 3.124-6.963 6.968-6.963m177.15 4.971c0-10.986-8.912-19.904-19.907-19.904h-29.856v14.926h27.87v.007c4.68 0 6.965 3.124 6.965 6.963 0 0 0 1.054-2.197 2.784-2.85 2.232-14.659 5.453-21.096 8.025v-.032c-10.042 3.36-14.654 9.63-14.654 19.455 0 12.768 5.622 17.7 16.671 17.7h36.204c-.32-7.496 0-49.924 0-49.924Zm-14.928 35.202h-21.28c-1.339 0-2.117 0-2.221-.953-1.014-9.125 4.528-8.78 23.501-15.316v16.27" fill="#231F20"/><path fill="#CBD7DE" d="M242.492 109.948h4.481v22.336h-4.481v-22.336m10.016 0h5.505l8.514 16.703h.061v-16.703h4.29v22.336h-5.471l-8.546-16.704h-.064v16.704h-4.289v-22.336m28.353 3.519h-6.4v-3.519h17.279v3.519h-6.399v18.817h-4.48v-18.817m14.689-3.519h13.182v3.519h-8.704v5.505h7.97v3.519h-7.97v6.273h8.77v3.52h-13.249v-22.336m18.368 0h4.831c4.801 0 10.528-.16 10.528 6.047 0 2.625-1.76 4.801-4.607 5.184v.065c1.216.095 1.919 1.312 2.367 2.304l3.584 8.736h-4.992l-2.688-6.977c-.64-1.662-1.216-2.302-3.104-2.302h-1.44v9.279h-4.479v-22.336Zm4.479 9.535h1.473c2.207 0 4.735-.32 4.735-3.104 0-2.688-2.495-2.912-4.735-2.912h-1.473v6.016m16.192-9.535h5.505l8.511 16.703h.065v-16.703h4.287v22.336h-5.472l-8.544-16.704h-.063v16.704h-4.289v-22.336m30.688 0h5.055l8.768 22.336h-4.959l-1.921-5.121h-9.055l-1.953 5.121h-4.638l8.703-22.336Zm2.464 4.48h-.063l-3.234 9.216h6.529l-3.232-9.216m16.708-.961h-6.399v-3.519h17.279v3.519h-6.399v18.817h-4.481v-18.817m14.304-3.519h4.48v22.336h-4.48v-22.336m20.098-.384c7.007 0 10.942 4.736 10.942 11.487 0 6.753-3.87 11.616-10.943 11.616-7.169 0-10.945-4.767-10.945-11.616 0-6.847 3.841-11.487 10.945-11.487Zm0 19.583c4.574 0 6.27-4.064 6.27-8.096 0-3.935-1.823-7.968-6.27-7.968-4.449 0-6.274 4.033-6.274 7.968 0 4.032 1.697 8.096 6.273 8.096m15.776-19.199h5.503l8.512 16.703h.065v-16.703h4.287v22.336h-5.47l-8.546-16.704h-.061v16.704h-4.29v-22.336m30.687 0h5.055l8.769 22.336h-4.959l-1.922-5.121H463.2l-1.952 5.121h-4.639l8.703-22.336Zm2.464 4.48h-.063l-3.234 9.216h6.529l-3.232-9.216m15.2-4.48h4.48v18.816h8.672v3.52h-13.152v-22.336"/></g></svg>