<svg xmlns="http://www.w3.org/2000/svg" viewBox="0 0 72 100"><path d="M1.08 47.858c0 19.678 15.596 35.63 34.833 35.63 19.238 0 34.833-15.952 34.833-35.63 0-19.676-15.595-35.628-34.833-35.628-19.237 0-34.833 15.952-34.833 35.63" fill="#D33833"/><path d="M69.326 56.683s2.522-37.155-31.714-38.215L40 14.487l18.578 6.237 5.308 6.104 4.644 8.89 2.654 10.35-.796 6.9" fill="#EF3D3A"/><path d="M59.771 23.554c6.111 6.253 9.893 14.887 9.893 24.438 0 9.55-3.782 18.185-9.893 24.437-6.115 6.252-14.541 10.11-23.857 10.11-9.316 0-17.744-3.858-23.857-10.11-6.112-6.252-9.894-14.887-9.894-24.437 0-9.551 3.782-18.185 9.894-24.438 6.113-6.25 14.54-10.11 23.857-10.11 9.316 0 17.742 3.86 23.857 10.11Zm1.547 50.387c6.495-6.643 10.51-15.823 10.51-25.95 0-10.126-4.015-19.306-10.51-25.95-6.494-6.643-15.483-10.761-25.404-10.76-9.922-.001-18.912 4.117-25.404 10.76C4.014 28.685-.002 37.865 0 47.991c-.002 10.127 4.014 19.308 10.51 25.95 6.492 6.644 15.482 10.76 25.404 10.76 9.921 0 18.91-4.116 25.404-10.76Z" fill="#231F20"/><path fill="#F0D6B7" d="m21.25 48.056 5.308.797 7.166.796 4.645.132 4.511-.132 3.45-1.062 3.053-3.317 2.388-6.768.53-1.46 3.186-1.06 1.857-3.053 1.327-4.379-1.46-3.848-3.45-1.195-2.786 1.328-1.327 2.919-1.593-.266-.53-.663.53-3.052.133-3.848-.796-5.308.031-3.032-2.42-3.868-4.246-3.052-7.43-3.185-8.228 1.194-7.166 5.175-3.317 5.308-2.123 3.848-.53 9.555 1.592 8.227 2.919 7.298 2.786 3.848"/><path fill="#335061" d="m25.762 71.013 18.976.795v3.185l-1.592 11.146.796.93 13.27-4.513.929-1.592 1.326-14.995 3.052-9.023.664-2.123-10.616-7.298-3.317-1.327-2.92 3.582-2.52 2.256-2.92.93-1.327.397-1.592 6.9-1.195 1.46-3.052-1.062 2.124 4.114-11.545 5.44 1.46.797"/><path fill="#6D6B6D" d="m57.211 24.702-3.45-1.195-2.786 1.328-1.327 2.919-1.593-.266-.398-1.592.796-3.052-.796-7.298.664-3.981-2.389-2.787-5.175-4.113 1.46-1.99 7.298 3.582 3.052 2.389 1.725 3.715 2.654 3.583.796 4.246-.53 4.512"/><path d="M51.771 12.228s-1.99-4.91-9.952-7.297c-7.962-2.39-.398-1.726-.398-1.726l8.625 3.318 3.318 3.317 1.459 2.654-3.052-.265m3.981 11.544s2.787-9.29-7.83-10.615l.399-1.593 7.298 1.725 2.123 6.9-.53 4.512-1.46-.93" fill="#DCD9D8"/><path d="m51.506 36.114-1.738-1.683s-.784.09-.916 1.02c-.133.929-.531 9.289-6.237 13.8-.52.412 4.246-.664 4.246-.664l4.247-6.634m-24.02-8.36s-.309-4.022-1.392-3.713c-1.083.31-1.083 1.393-1.083 1.393s2.63 1.7 2.476 2.32m-11.013-14.73s2.187.462 2.388 2.389c.202 1.927-2.388.398-2.786.266m16.454-2.521s2.92.398 2.92 2.255c0 1.858-3.318 1.726-4.247.93m19.373 5.44s5.043-3.052 5.574-.133c.53 2.92 1.725 5.043-.796 8.094l1.725-.53 1.592-4.114.53-3.98-3.051-3.186-3.45.266-1.99 1.592-.133 1.99m-2.389-8.36S45.534 7.585 34.122 5.329c-9.395-1.857-14.33.398-16.189 2.52 0 0 8.36-9.951 16.322-6.9 7.962 3.053 13.8 8.626 13.668 12.209-.226 6.1-.133 6.104-.133 6.104M17.004 9.177s3.848-.133 3.981 3.317c0 0 0 .53-.265 1.062 0 0-3.052-3.45-4.91-1.593" fill="#F7E4CD"/><path d="M33.855 13.915s.662-5.296 5.177-2.217c2.92 1.99 2.654 4.777 2.123 5.308-.53.53-.386 1.6-.79.866-.404-.734-.27-3.122-1.73-3.785-1.46-.664-3.853-1.405-4.78-.172" fill="#F7E4CD"/><path d="m46.331 49.782 12.473 5.573s-5.175 20.568-2.521 26.937l1.858-.663.132-7.83 3.45-14.86 1.46-4.115-13.005-8.756-3.848 3.715m-1.282 11.375-1.77 2.16v7.96h2.124s.265-5.572.265-6.236c0-.664-.265-3.052-.265-3.052m-.398 10.483 5.971.265-1.725 1.194-4.246.664" fill="#49728B"/><path fill="#335061" d="m24.568 71.146-4.91-.133-1.194 12.208 5.043.663 1.061-12.738"/><path d="m23.241 71.146-7.43-.398s-3.053-7.696-3.053-8.095c0-.398-2.654-11.146-2.654-11.146l5.972-6.236 1.194-1.062 3.185 3.185v12.34l2.786 11.412" fill="#335061"/><path d="m19.924 70.218 4.644.928-.663 3.716c-1.725.796-4.645-1.328-4.645-1.328m.531-26.539-9.289 6.9-.265-3.184 7.033-6.502 2.521 2.786" fill="#49728B"/><path fill="#FFF" d="m40.398 97.288 2.748-11.148 1.366-8.226.226-6.105-12.434-.662-7.736-.001.703 13.934-1.193 10.748.133 1.99 10.083.798 6.105-1.328"/><path d="M26.293 71.013s.664 13.8-1.327 23.62c0 0 3.981 2.522 9.82 3.185l-11.147-.398-1.327-.796 1.593-21.762.398-4.645" fill="#DCD9D8"/><path fill="#FFF" d="m18.238 82.161-5.175-1.46-9.82-.53-1.46-4.512 2.655-7.83 3.052-.398 4.246 1.327 4.074 1.99 2.163-.397 1.685.662"/><path d="M18.332 79.506s-3.45-1.592-3.981-1.46l1.46-7.298-1.726-.663s-1.194 6.9-1.194 7.696c0 0-7.43.398-8.094.398 0 0-1.593-3.052-1.195-6.237l-1.46 4.246-.132 2.389 2.123 3.185 2.388.53 3.981-.132 1.327-1.725 4.645.663 1.46.53" fill="#DCD9D8"/><path d="m23.546 70.086 2.92-7.431 3.051-4.38s-.663-1.857-1.592-1.857h-3.052l-2.92 1.062.266 4.91 1.327 7.696" fill="#FFF"/><path d="M22.976 67.563s3.715-7.165 3.715-8.227c0 0-.663-1.592-1.592-1.194-.929.398-2.92 1.46-2.92 1.46V57.08l4.512-.93 3.052.399-5.175 12.209-1.061.133" fill="#DCD9D8"/><path fill="#FFF" d="m39.204 50.048 3.676-.4 3.45-1.06v1.193l-1.685 1.86-5.308 2.388"/><path d="M45.136 50.447s-4.114 1.725-5.441 1.327l-.132 1.59 3.715-.794 2.256-1.592-.398-.531" fill="#DCD9D8"/><path d="M18.252 56.87c2.252-.066 4.286-.334 6.067-.836-.12-.73.106-1.447-.076-1.973-.497-.357-1.329-.352-2.079-.436.649-.32 1.56-.445 2.31-.26.017-.507.244-.821.382-1.218-1.266-.452-4.255-3.414-5.936-2.433-.8.467-1.141 3.13-1.203 4.427-.052 1.075.097 2.16.535 2.729" fill="#D33833"/><path d="M18.252 56.87c2.252-.066 4.286-.334 6.067-.836-.12-.73.106-1.447-.076-1.973-.497-.357-1.329-.352-2.079-.436.649-.32 1.56-.445 2.31-.26.017-.507.244-.821.382-1.218-1.266-.452-4.255-3.414-5.936-2.433-.8.467-1.141 3.13-1.203 4.427-.052 1.075.097 2.16.535 2.729Z" stroke="#D33833" stroke-width="2.5"/><path d="m29.019 53.188.02.515c.703.462 1.838.456 2.61.844-1.137.05-2.033.324-2.807.71l.05 1.287c1.288.882 2.465 2.196 3.983 3.023.717.39 3.235 1.398 3.998 1.22.432-.1.47-.636.643-1.141.368-1.082 1.215-2.803 1.288-4.432.095-2.056.302-5.503-1.914-5.08-1.788.342-3.868 1.166-5.252 1.922-.846.463-1.335 1.034-2.619 1.133" fill="#D33833"/><path d="m29.019 53.188.02.515c.703.462 1.838.456 2.61.844-1.137.05-2.033.324-2.807.71l.05 1.287c1.288.882 2.465 2.196 3.983 3.023.717.39 3.235 1.398 3.998 1.22.432-.1.47-.636.643-1.141.368-1.082 1.215-2.803 1.288-4.432.095-2.056.302-5.503-1.914-5.08-1.788.342-3.868 1.166-5.252 1.922-.846.463-1.335 1.034-2.619 1.133v-.001Z" stroke="#D33833" stroke-width="2.5"/><path d="M27.74 55.643c.196-1.12.424-1.44.336-2.417-2.988-1.992-3.549 3.42-.336 2.417" fill="#D33833"/><path d="M27.74 55.643c.196-1.12.424-1.44.336-2.417-2.988-1.992-3.549 3.42-.336 2.417Z" stroke="#D33833" stroke-width="2.5"/><path d="M23.414 56.551s.929-1.327.265-1.726c-.663-.398-1.327 0-1.725-.663-.398-.663 0-1.061-.133-1.858-.132-.796-.796-.93-1.46-1.061-.663-.133-2.521-.398-2.786.265l.796-2.388 1.592-.531 5.043 2.92.265 1.459v2.92m12.076 5.042c.159-2.071.328-4.14.515-6.208.281-3.09-.742-2.55-3.42-2.55-.408 0-2.518.487-2.669.796-.723 1.478 1.21 1.15-.833 2.264-1.725.94-4.773-.57-4.076-2.662.39-.465 2.032-.145 2.621-.45l3.11-1.613c1.32-.684 4.368-1.682 5.774-.725 3.563 2.423-.225 8.477-1.496 11.005" fill="#EF3D3A"/><path d="M33.855 13.915c3.617-.842 5.414 1.514 6.51 3.957.979-.237.59-1.568.342-2.247-.647-1.78-3.256-4.15-5.388-3.83-.917.14-2.159.978-1.464 2.12m-17.622 4.119-.172.006c-.817 1.698-1.524 3.497-2.555 4.996.69 1.608 5.23 3.032 5.16.143-.982-.43-2.677-.087-3.547-.635.503-1.381 1.23-2.557 1.114-4.51m15.77.044c-.775 1.42-1.028 2.915-2.13 3.99-.496.483-1.462 1.073-.983 2.418.112.317.929 1.025 1.4 1.164 1.724.508 5.74.105 4.38-2.044-1.426.067-3.341.926-4.406-.11.818-1.307 2.276-3.894 1.74-5.42M16.88 32.526c2.594 1.667 5.488 3.48 9.74 3.06.908-.79 1.254-2.548.372-3.71-.46.79-.171 2.243-1.451 2.462-2.413.413-5.22-1.476-6.956-2.136-1.076-1.814.093-2.481 1.062-3.65 1.985-2.391 4.647-5.356 4.55-8.937-.802-.582-.871.888-.986 1.155-1.037 2.425-3.645 5.527-5.548 7.602-.467.512-1.237 1.002-1.322 1.34-.247.983.642 2.16.539 2.814m34.207-1.755c.813-.464 1.007-2.508 1.962-2.567 1.364-.082 1.115 2.653 1.11 4.252.94-.852 1.104-3.478.414-4.826.787-.386 1.138.426 1.574.712-.56-4.072-5.957-1.89-5.06 2.43m-35.859 3.45c1.207 2.299 2.916 4.83 6.46 4.904.072-.742.128-1.872-.004-2.32-2.71-.26-4.382-1.64-6.456-2.584m16.98 1.49c-2.261 1.19-6.415 1.317-9.488 1.227-.165.673-.16 1.505-.167 2.326 3.95.197 8.619-.78 9.655-3.553m.43 2.217c-1.564 3.925-6.937 3.473-11.467 3.365.2.51.632 1.11 1.169 1.329 1.452.59 5.456 1.039 7.472-.032 1.278-.68 2.1-2.215 2.8-3.115.338-.434 2.022-1.545.025-1.547" fill="#231F20"/><path d="M17.068 59.578c1.835 3.142 3.59 6.369 5.766 9.14-.912-2.683-1.303-7.173-1.44-10.596-1.91-.893-3.544.2-4.326 1.456" fill="#81B0C4"/><path d="M7.198 70.87c2.053.41 3.496 2.407 5.5 2.28-1.101-1.553-3.03-2.207-5.5-2.28m-.907 3.214c1.674.177 3.64.448 5.338.308-.803-1.227-3.9-.804-5.338-.308m-.58 2.77c1.882.042 4.22.005 6.008-.146-1.057-1.136-4.787-.421-6.008.147" fill="#231F20"/><path d="M20.608 84.438c-.27 2.363-1.206 4.757-1.089 7.345 1.04.35 1.638.657 3.032.656.098-2.2.392-5.561.304-7.658-.685.046-1.696-.49-2.247-.342" fill="#DCD9D8"/><path d="M23.641 49.617c.945.617 1.75 1.386 2.657 2.045 2.012.1 3.11-.14 4.588-1.295-.025-.092-.173-.051-.179-.165-2.153.96-4.89-.39-7.066-.585" fill="#F0D6B7"/><path d="M34.948 64.298c-.592-2.565-2.911-3.892-5.016-5.305-2.174 2.759-3.495 6.305-4.95 9.728 3.438-1.036 6.951-2.718 9.965-4.423" fill="#81B0C4"/><path d="M22.855 84.781c.088 2.097-.206 5.458-.304 7.658-1.394 0-1.992-.305-3.032-.656-.117-2.588.82-4.982 1.09-7.344.55-.147 1.56.388 2.246.342Zm21.703-11.923c-.92 8.449-2.25 15.55-4.692 23.032-5.418 1.645-11.95 1.789-16.74.304.88-4.222.495-9.363 1.01-13.87.386-3.386.189-6.794.72-10.25 5.803-1.206 14.006-.281 19.702.784Zm-21.074-.73c.049 3.628-.163 7.208-.44 10.84-1.393-.208-2.338-.348-3.633-.632.42-3.497.369-7.433 1.225-10.527.99.01 1.861-.012 2.848.319Zm-7.068-.585c.661-.152 1.43-.006 2.063.006-.297 2.958-1.018 6.222-1.271 9.327-.994.03-1.525-.438-2.343-.596-.044-2.725.238-6.48 1.55-8.737h.001ZM5.714 81.321c-2.073-.503-3.375-3.04-2.796-5.647.39-1.752 1.082-5.05 1.823-6.17.548-.83 2.033-1.914 3.219-1.155 1.93 1.235 5.328 1.594 6.734 3.09-.705 2.348-.924 5.574-1.215 8.55-2.41.15-5.375-.663-7.38.2 1.4.453 3.215.457 4.424 1.118-.988.477-3.301.38-4.81.014h.001Zm19.268-12.6c1.456-3.424 2.777-6.97 4.95-9.73 2.106 1.414 4.425 2.74 5.016 5.306-3.014 1.705-6.527 3.387-9.966 4.423Zm-3.587-10.6c.137 3.423.528 7.913 1.44 10.596-2.176-2.771-3.931-5.998-5.766-9.14.782-1.255 2.417-2.35 4.326-1.456Zm4.067-1.445c.824-.09 1.524.948 2.596.5.246.27.469.565.72.83-2.369 2.854-3.445 6.902-5.273 10.256-.982-3.221-.869-6.75-1.085-10.266 1.348.085 2.096-1.22 3.042-1.32Zm2.615-3.451c.088.977-.14 1.297-.336 2.417-3.213 1.004-2.652-4.41.336-2.417Zm3.562-1.17c1.384-.756 3.464-1.58 5.252-1.921 2.216-.424 2.009 3.023 1.914 5.08-.073 1.628-.92 3.35-1.288 4.43-.172.506-.211 1.042-.643 1.142-.763.178-3.281-.83-3.998-1.22-1.518-.827-2.695-2.14-3.983-3.023l-.05-1.287c.774-.386 1.67-.66 2.807-.71-.772-.388-1.907-.382-2.61-.844l-.02-.514c1.284-.1 1.773-.67 2.62-1.133h-.001Zm13.222-2.402c1.149 1.167-3.222 2.757-4.614 2.842.008-.738-.42-1.434-.334-1.963 1.653-.29 3.825-.1 4.948-.88Zm-14.153.548c.006.114.154.073.179.165-1.478 1.156-2.576 1.394-4.588 1.295-.907-.66-1.712-1.428-2.657-2.045 2.175.194 4.913 1.545 7.066.585Zm-12.99 3.94c.062-1.297.402-3.961 1.203-4.428 1.681-.981 4.67 1.98 5.936 2.433-.138.397-.365.71-.383 1.218-.749-.185-1.66-.06-2.309.26.75.084 1.582.079 2.079.436.182.526-.045 1.243.076 1.973-1.78.502-3.815.77-6.067.836-.438-.57-.587-1.654-.535-2.73v.002Zm29.077-3.36c.361-.257 2.802-3.432 3.136-3.3 4.416 1.74 8.546 4.753 12.236 7.6-3.518 7.55-4.939 16.8-5.19 25.714-4.03 1.885-7.57 4.603-13.04 4.887.634-4.478 1.211-8.473 1.57-12.69 1.375-.578 3.346.028 4.632-.18.011-1.55-1.964-.677-2.128-1.72-.124-.787 1.086-.847.692-2.09-1.005.367-1.533 1.174-2.605 1.477-.98-2.143.014-5.935-.128-7.727-.026-.336-.168-1.863-.921-1.595-.667.237.038 4.06-.035 5.757-.067 1.562.189 3.073-.444 4.054a150.883 150.883 0 0 0-16.373-1.341c1.258-.54 2.752-1.051 4.39-1.974.889-.501 3.689-1.543 3.945-2.387.409-1.344-1.073-2.06-1.326-3.213 2.667 1.455 3.188-1.394 3.819-3.413.572-1.828.897-3.194 1.037-4.25 2.298-1.094 4.755-2.204 6.733-3.61Zm-26.743-2.916c-3.68-1.785-4.343 6.668-2.9 9.39-.223.813-.99 1.124-1.303 1.854 2.053 3.678 4.334 7.112 6.429 10.747-1.558-.97-3.785-.174-5.619-.9-.67-.265-1.155-1.8-1.663-3.027-1.396-3.378-2.862-7.636-3.514-10.86-.147-.734-.548-2.334-.458-2.988.16-1.17 1.748-2.038 2.556-2.762 1.488-1.337 2.425-2.513 3.977-3.763.63.929 1.98 1.553 2.495 2.309Zm35.156-32.63c1.754 1.929 1.387 5.544 1.174 8.116-3.169-1.994-7.375.157-7.335 3.548-1.514-.04-.566-1.89-.292-3.081.894-3.892-1.507-8.12-.109-11.68 2.714.207 4.944 1.316 6.562 3.097ZM42.664 4.038c3.97 1.125 9.056 4.01 10.687 7.575-1.263-.183-2.14-.82-3.385-.9-.471-.03-1.088.198-1.63.064-1.078-.268-1.988-2.686-2.801-3.585-.793-.88-1.747-1.254-2.399-2.055-.42-.202-1.039-.188-1.063-.818.182-.194.373-.342.591-.28v-.001ZM22.002 5.097c4.12-2.325 11.093-4.073 15.476-1.89 3.536 1.765 8.316 4.68 9.945 8.378-1.522 3.568.451 6.836.577 10.458.067 1.927-.907 3.61-.982 5.708.521.86 2.113.965 3.214.906.371-1.856 1.02-3.942 2.932-4.151 2.704-.296 4.681 1.942 4.804 4.28.145 2.75-2.113 7.31-5.313 6.993-1.236-.122-1.54-1.361-2.887-1.348-.73 1.456 1.126 1.914 1.317 2.955.05.27-.154 1.32-.272 1.814-.581 2.402-1.877 5.51-3.153 7.339-1.618 2.32-4.799 2.669-8.22 2.896-.611-1.317-2.863-1.208-4.33-.864 1.758-.696 3.393-2.384 4.747-3.878 1.556-1.714 3.132-3.553 3.212-5.793-2.94 4.078-5.37 7.64-10.716 9.435-4.045 1.356-8.77-.622-11.878-2.805-1.29-.907-2.06-2.347-2.976-3.664-3.43-4.935-5.031-11.978-4.68-18.804.146-2.815.14-5.621 1.084-7.515.987-1.98 4.326-3.753 6.28-1.961.363-1.926-1.625-3.117-3.96-2.424 1.666-2.15 3.413-4.73 5.779-6.065Zm-7.676 63.52c-3.219-1.6-9.234-4.307-11.252.006-.745 1.59-1.619 4.278-2.005 5.92-.545 2.315.591 7.182 2.971 7.96 2.102.686 4.556.644 7.088.135.298-.248.63-.68.862-1.13 1.808-.07 3.501.096 4.93.84-.136 1.337.769 1.55 1.617 1.827.628 2.492-1.258 5.747-.807 8.02.323 1.619 2.315 1.87 3.779 2.172.048.9-.064 1.65-.164 2.412.335 1.235 1.836 1.937 3.259 2.109 4.681.563 11.789.816 16.291-.803 1.257-3.082 2.246-6.83 3.293-10.35 4.391.47 7.943-1.895 11.291-3.443 1.16-.538 2.763-.834 3.196-1.757.42-.893.249-2.605.353-4.223.265-4.13.492-8.115 1.583-12.345.49-1.898 1.343-3.573 1.939-5.401.55-1.696 1.512-3.79 1.763-5.48.372-2.506-1.987-2.645-3.495-3.73-2.332-1.68-4.162-2.608-6.688-4.123-.748-.45-3.003-1.584-3.26-2.107-.51-1.037.875-2.5 1.246-3.312.586-1.286.891-2.378.975-3.646 2.119-.335 3.725-1.596 4.695-3.017 1.604-2.353 2.717-6.706 1.329-10.017-.11-.26-.652-.773-.732-1.174-.158-.788.297-1.837.325-2.676.146-4.303-.728-8.01-3.625-9.308-1.176-4.686-5.385-6.243-9.35-8.572-1.483-.87-3.117-1.426-4.805-2.047C34.874-.871 25.585-.453 20.56 3.349c-2.13 1.61-5.536 5.014-6.754 7.477-3.218 6.503-2.99 17.373-.739 25.284.303 1.062.741 2.623 1.354 3.899.427.89 1.755 2.674 1.594 3.46-.166.814-3.027 2.986-3.64 3.577-1.106 1.066-3.204 2.48-3.374 3.825-.183 1.43.63 3.39 1.042 4.77 1.378 4.609 2.722 8.869 4.283 12.978v-.002Z" fill="#231F20"/><path d="M35.805 36.716c-.175-.232-1.135-.585-2.479.062 0 0 1.592.265 1.46 2.92l.663-.133s.686-2.407.356-2.85" fill="#F7E4CD"/><path d="M24.17 59.535a.73.73 0 1 0 1.46 0 .73.73 0 0 0-1.46 0m-.73 3.384a.73.73 0 1 0 1.46 0 .73.73 0 0 0-1.46 0" fill="#1D1919"/></svg>