<svg xmlns="http://www.w3.org/2000/svg" viewBox="0 0 176 176"><path d="M0 0h175.195v175.195H0V0Zm160.84 133.418c-1.27-7.988-6.485-14.707-21.914-20.977-5.371-2.52-11.348-4.277-13.125-8.32-.664-2.402-.762-3.73-.332-5.156 1.094-4.707 6.68-6.133 11.054-4.824 2.852.879 5.47 3.066 7.13 6.562 7.538-4.941 7.538-4.941 12.812-8.203-1.973-3.066-2.95-4.395-4.278-5.703-4.59-5.137-10.722-7.774-20.683-7.54l-5.156.645c-4.942 1.211-9.63 3.828-12.48 7.344-8.321 9.434-5.919 25.84 4.16 32.637 9.96 7.441 24.53 9.082 26.406 16.094 1.757 8.535-6.348 11.27-14.356 10.293-5.918-1.31-9.2-4.278-12.812-9.747l-13.36 7.676c1.524 3.496 3.281 5.04 5.918 8.086 12.696 12.813 44.453 12.168 50.156-7.324.215-.664 1.758-5.156.547-12.05l.313.507Zm-65.567-52.89H78.867c0 14.14-.058 28.202-.058 42.382 0 8.985.468 17.246-1.016 19.785-2.402 5.04-8.613 4.395-11.426 3.496-2.89-1.425-4.355-3.398-6.055-6.25-.468-.761-.8-1.425-.917-1.425l-13.32 8.203c2.226 4.59 5.468 8.554 9.667 11.074 6.25 3.73 14.63 4.922 23.418 2.95 5.723-1.641 10.645-5.04 13.223-10.294 3.73-6.797 2.93-15.117 2.89-24.433.079-15 0-30 0-45.098v-.39Z" fill="#F5DD1E"/></svg>