<svg fill="none" xmlns="http://www.w3.org/2000/svg" viewBox="0 0 17 24"><path d="M15.9 10.8a.9.9 0 0 1 .892.778l.008.122v.6a8.1 8.1 0 0 1-7.499 8.078L9.3 23.1a.9.9 0 0 1-1.792.122L7.5 23.1v-2.722a8.101 8.101 0 0 1-7.495-7.794L0 12.3v-.6a.9.9 0 0 1 1.792-.122l.008.122v.6a6.3 6.3 0 0 0 6.04 6.295l.26.005h.6a6.3 6.3 0 0 0 6.295-6.04L15 12.3v-.6a.9.9 0 0 1 .9-.9ZM8.4 0a4.8 4.8 0 0 1 4.8 4.8V12a4.8 4.8 0 0 1-9.6 0V4.8A4.8 4.8 0 0 1 8.4 0Zm0 1.8a3 3 0 0 0-3 3V12a3 3 0 0 0 6 0V4.8a3 3 0 0 0-3-3Z"/></svg>