<svg xmlns="http://www.w3.org/2000/svg" viewBox="0 0 133 87"><path d="M74.228 86.328h49.186a9.11 9.11 0 0 0 4.45-1.156 8.762 8.762 0 0 0 3.257-3.16 8.436 8.436 0 0 0 1.191-4.317 8.433 8.433 0 0 0-1.194-4.316L98.086 17.883a8.768 8.768 0 0 0-3.257-3.16 9.109 9.109 0 0 0-4.449-1.156 9.109 9.109 0 0 0-4.449 1.156 8.767 8.767 0 0 0-3.257 3.16l-8.446 14.2L57.715 4.314a8.773 8.773 0 0 0-3.258-3.159A9.115 9.115 0 0 0 50.007 0a9.115 9.115 0 0 0-4.45 1.156 8.773 8.773 0 0 0-3.258 3.16L1.195 73.378A8.424 8.424 0 0 0 0 77.695c0 1.515.41 3.004 1.19 4.317a8.768 8.768 0 0 0 3.258 3.16 9.112 9.112 0 0 0 4.45 1.156h30.875c12.233 0 21.254-5.212 27.462-15.38l15.07-25.317 8.073-13.549 24.226 40.697H82.305l-8.077 13.55ZM39.27 72.765l-21.546-.004L50.02 18.5l16.116 27.13-10.79 18.133c-4.123 6.598-8.806 9.002-16.078 9.002Z" fill="#00DC82"/></svg>