<svg viewBox="0 0 1024 1024" xmlns="http://www.w3.org/2000/svg"><path d="M512 1024C230.4 1024 0 793.6 0 512S230.4 0 512 0c108.8 0 211.2 32 300.8 96 12.8 12.8 19.2 32 6.4 44.8s-32 19.2-44.8 6.4C697.6 89.6 608 64 512 64 262.4 64 64 262.4 64 512s198.4 448 448 448 448-198.4 448-448c0-76.8-19.2-153.6-57.6-224-6.4-12.8-6.4-32 12.8-44.8 12.8-6.4 32-6.4 44.8 12.8 38.4 76.8 64 166.4 64 256 0 281.6-230.4 512-512 512z" fill="#1afa29"/><path d="M672 454.4h-64c-12.8 0-51.2 6.4-64 0 0-6.4 6.4-25.6 6.4-32 6.4-25.6 12.8-44.8 19.2-70.4l32-102.4c0-19.2-19.2-25.6-25.6-12.8l-230.4 320c-6.4 6.4 0 19.2 12.8 19.2H448c6.4 0 32-6.4 38.4 0 0 0-6.4 19.2-6.4 25.6-19.2 64-32 121.6-51.2 185.6-6.4 12.8 12.8 19.2 19.2 6.4l230.4-320c6.4-6.4 0-19.2-6.4-19.2z" fill="#1afa29"/></svg>