<svg xmlns="http://www.w3.org/2000/svg" viewBox="0 0 431 512"><path d="M425.03 420.445c-11.526 1.393-44.86-52.741-44.86-52.741 0 31.345-16.136 72.247-51.051 101.786 16.842 5.192 54.843 19.167 45.803 34.421-7.316 12.343-125.51 7.881-159.632 4.037-34.122 3.844-152.316 8.306-159.632-4.037-9.045-15.25 28.918-29.214 45.783-34.415-34.92-29.539-51.06-70.445-51.06-101.792 0 0-33.333 54.134-44.858 52.741-5.37-.65-12.424-29.644 9.347-99.704 10.26-33.024 21.995-60.478 40.144-105.779C51.959 98.063 100.258.006 215.276 0 329.013.006 378.432 96.133 375.54 214.963c18.118 45.223 29.912 72.85 40.144 105.778 21.768 70.06 14.716 99.053 9.346 99.704Z"/></svg>