<svg xmlns="http://www.w3.org/2000/svg" viewBox="0 0 91 105"><path fill="#52B0E7" d="m45.342 15.181 32.374 18.418 12.97-7.488L45.459.001.007 26.11l12.97 7.488L45.34 15.182"/><path fill="#3C76C3" d="m.235 26.252 13.087 7.554V71.19l32.02 18.493v14.832L0 78.472.237 26.25"/><path fill="#2E9D4D" d="m32.798 45.04 12.605 7.278v14.83l-6.537-3.778-6.066-3.502-.002-14.828"/><path fill="#256F44" d="m58.243 44.902-12.839 7.412v14.831l12.603-7.281.236-14.961"/><path fill="#2E3B69" d="m90.451 26.252-13.087 7.554v36.972l-15.656 9.45-16.364 9.454v14.832l.118.068 45.032-25.998-.041-52.335"/><path fill="#9FD62B" d="m45.401 52.314-12.605-7.277v-.089L45.4 37.67l.156-.09 6.38 3.684 6.303 3.638L45.4 52.314"/><path fill="#3C76C3" d="m16.768 53.944 12.605 7.278v14.83l-6.537-3.778-6.066-3.502-.002-14.828"/><path fill="#2E3B69" d="m41.98 53.944-12.606 7.278v14.83l12.604-7.28.002-14.828"/><path fill="#52B0E7" d="M29.373 61.222 16.77 53.945l6.38-3.773 6.225-3.595 12.606 7.368-12.606 7.277"/><path fill="#3C76C3" d="m49.208 54.325 12.606 7.278v14.83l-6.538-3.778-6.066-3.502-.002-14.828"/><path fill="#2E3B69" d="m74.421 54.325-12.605 7.278v14.83l12.603-7.28.002-14.828"/><path fill="#52B0E7" d="m61.813 61.603-12.605-7.277v-.089l6.38-3.684 6.225-3.595 12.606 7.368-12.606 7.277"/><path fill="#3C76C3" d="m33.307 63.678 12.605 7.277v14.83l-6.537-3.777-6.066-3.503-.002-14.828"/><path fill="#2E3B69" d="m58.518 63.678-12.606 7.277v14.83l12.604-7.28.002-14.827"/><path fill="#52B0E7" d="m45.913 70.953-12.604-7.277v-.089l6.38-3.684 6.224-3.595 12.606 7.368-12.606 7.277"/><path fill="#3C76C3" d="m32.798 25.21 12.605 7.278v14.83l-6.537-3.778-6.066-3.502-.002-14.828"/><path fill="#2E3B69" d="m58.243 25.076-12.839 7.412v14.83l12.603-7.281.236-14.96"/><path fill="#52B0E7" d="M45.401 32.488 32.796 25.21v-.089L45.4 17.843l.156-.09 6.38 3.684 6.303 3.639L45.4 32.488"/><path fill="#3C76C3" d="m16.768 34.118 12.605 7.278v14.83l-6.537-3.778-6.066-3.502-.002-14.828"/><path fill="#2E3B69" d="m41.98 34.118-12.606 7.278v14.83l12.604-7.28.002-14.828"/><path fill="#52B0E7" d="M29.373 41.396 16.77 34.119l6.38-3.773 6.225-3.595 12.606 7.368-12.606 7.277"/><path fill="#3C76C3" d="m49.208 34.499 12.606 7.278v14.83l-6.538-3.778-6.066-3.502-.002-14.828"/><path fill="#2E3B69" d="m74.421 34.499-12.605 7.278v14.83l12.603-7.28.002-14.828"/><path fill="#52B0E7" d="M61.813 41.777 49.208 34.5v-.09l6.38-3.683 6.225-3.595L74.419 34.5l-12.606 7.277"/><path fill="#3C76C3" d="m33.307 43.852 12.605 7.277v14.83l-6.537-3.778-6.066-3.502-.002-14.828"/><path fill="#2E3B69" d="m58.518 43.852-12.606 7.277v14.83l12.604-7.281.002-14.827"/><path fill="#52B0E7" d="m45.913 51.126-12.604-7.277v-.09l6.38-3.684 6.224-3.595 12.606 7.369-12.606 7.277"/></svg>