<svg xmlns="http://www.w3.org/2000/svg" viewBox="0 0 774 876"><path fill="#FFF" d="m387 0 387 218.9v437.9L387 875.7 0 656.8V218.9z"/><path d="M704.9 641.7 399.8 814.3V679.9l190.1-104.6 115 66.4Zm20.9-18.9V261.9l-111.6 64.5v232l111.6 64.4ZM67.9 641.7 373 814.3V679.9L182.8 575.3 67.9 641.7ZM47 622.8V261.9l111.6 64.5v232L47 622.8Zm13.1-384.3L373 61.5v129.9L172.5 301.7l-1.6.9-110.8-64.1Zm652.6 0-312.9-177v129.9l200.5 110.2 1.6.9 110.8-64Z" fill="#8ED6FB"/><path d="M373 649.3 185.4 546.1V341.8L373 450.1v199.2Zm26.8 0 187.6-103.1V341.8L399.8 450.1v199.2ZM198.1 318.2l188.3-103.5 188.3 103.5-188.3 108.7-188.3-108.7Z" fill="#1C78C0"/></svg>